<svg width="95" height="87" viewBox="0 0 95 87" fill="none" xmlns="http://www.w3.org/2000/svg">
<path d="M43.5401 47.5266C45.0237 47.3968 45.8237 50.1326 43.5401 51.5607C41.5237 53.0827 36.8088 51.9768 35.4635 47.5266C33.862 43.3236 36.9392 36.7476 43.5401 35.4259C49.877 33.7803 58.455 38.753 59.6934 47.5266C61.4159 56.0109 54.4551 66.5225 43.5401 67.6972C32.886 69.4726 20.4323 60.5894 19.3086 47.5266C17.4478 34.7329 28.3251 20.35 43.5401 19.2895C58.4927 17.3983 74.8691 30.1545 75.8467 47.5266C77.816 64.6548 63.0771 82.881 43.5401 83.8336C24.2404 85.8545 4.05583 69.2191 3.15528 47.5266C1.10272 26.1282 19.6559 3.96019 43.5401 3.15306C67.1618 1.01635 91.2158 21.5247 92 47.5266" stroke="#E7D9C5" stroke-width="5" stroke-linecap="round"/>
</svg>
